<svg id="a" xmlns="http://www.w3.org/2000/svg" viewBox="0 0 800 1364"><style>.st1{fill:#fff}</style><g fill="#002171"><path d="M0 0v1148.58L400 1364l400-215.42V0H0zM754.73 1218.89h-7.82V1236h-7.15v-17.11h-7.75V1212h22.73v6.89zm31.76 17.11h-7.15v-9.89l-5.41 9.63h-3.21l-5.41-9.63v9.89h-7.15v-24h6.08l8.09 14.51 8.09-14.51h6.08v24z"/></g><path fill="#ff1628" d="M0 0h800v800H0z"/><g fill="#fff"><path d="M199.04 123.64v10.83c0 20.06-6.42 36.31-19.26 48.74-12.84 12.44-29.49 18.66-49.75 18.66-21.67 0-39.72-7.02-53.96-21.06-14.24-14.24-21.26-31.49-21.26-51.75s7.02-37.71 21.06-51.95c14.24-14.24 31.69-21.26 52.55-21.26 26.28 0 49.15 12.84 61.18 32.7l-23.67 13.64c-6.62-11.43-21.06-19.46-37.71-19.46-13.44 0-24.47 4.41-33.1 13.24-8.62 8.63-12.84 19.66-12.84 33.1s4.41 24.27 13.04 32.9c8.83 8.62 20.46 12.84 34.9 12.84 21.46 0 35.9-10.03 40.92-26.68h-42.52v-24.47h70.41zM240.49 116.02c4.57-12.84 16.01-19.26 28.97-19.26v28.89c-7.43-1-14.29.6-20.2 4.82-5.91 4.21-8.77 11.03-8.77 20.66v47.94h-24.58V98.77h24.58v17.25zM310.98 159.55c3.41 12.64 12.84 18.86 28.28 18.86 9.83 0 17.45-3.41 22.47-10.03l20.86 12.03c-9.83 14.24-24.47 21.46-43.73 21.46-16.65 0-29.89-5.02-39.92-15.04-10.03-10.03-15.05-22.67-15.05-37.91s5.02-27.68 14.85-37.71c9.83-10.23 22.67-15.25 38.11-15.25 14.64 0 26.88 5.02 36.31 15.25 9.63 10.23 14.44 22.67 14.44 37.71 0 3.41-.4 6.82-1 10.63h-75.62zm50.75-20.06c-3.01-13.64-13.04-20.26-24.87-20.26-13.84 0-23.27 7.42-26.28 20.26h51.15zM480.89 98.77h25.88v100.3h-25.88v-11.84c-7.82 9.83-18.65 14.64-32.7 14.64s-24.87-5.02-34.5-15.25c-9.43-10.23-14.24-22.87-14.24-37.71s4.82-27.28 14.24-37.51c9.63-10.23 21.06-15.45 34.5-15.45s24.87 4.81 32.7 14.64V98.76zm-27.88 78.43c8.03 0 14.64-2.61 19.86-7.82 5.41-5.42 8.02-12.24 8.02-20.46s-2.61-15.04-8.02-20.26c-5.22-5.42-11.83-8.02-19.86-8.02s-14.64 2.61-19.86 8.02c-5.22 5.22-7.82 12.04-7.82 20.26s2.61 15.04 7.82 20.46c5.21 5.21 11.83 7.82 19.86 7.82M591.63 123.64h-22.67v41.72c0 10.83 7.82 11.03 22.67 10.23v23.47c-35.51 4.01-48.55-6.22-48.55-33.7v-41.72h-17.45V98.77h17.45V78.51l25.88-7.82v28.08h22.67v24.87zM125.63 235.01c13.44 0 24.87 4.61 34.1 13.64 9.23 9.03 13.84 20.26 13.84 33.5s-4.61 24.47-13.84 33.5c-9.23 9.03-20.66 13.64-34.1 13.64h-24.67v46.14H73.28V235.01h52.36zm0 68.4c11.83 0 20.46-9.23 20.46-21.26s-8.62-21.26-20.46-21.26h-24.67v42.52h24.67zM192.43 236.31h25.88v139.12h-25.88zM322.22 275.13h25.88v100.29h-25.88v-11.84c-7.82 9.83-18.65 14.64-32.7 14.64s-24.87-5.02-34.5-15.24c-9.43-10.23-14.24-22.87-14.24-37.71s4.81-27.28 14.24-37.51c9.63-10.23 21.06-15.45 34.5-15.45s24.87 4.81 32.7 14.64v-11.83zm-27.88 78.43c8.03 0 14.64-2.61 19.86-7.82 5.41-5.42 8.02-12.24 8.02-20.46s-2.61-15.04-8.02-20.26c-5.22-5.42-11.83-8.02-19.86-8.02s-14.64 2.61-19.86 8.02c-5.22 5.22-7.82 12.04-7.82 20.26s2.61 15.04 7.82 20.46c5.21 5.21 11.84 7.82 19.86 7.82M385.42 362.99c-10.03-10.23-15.05-22.67-15.05-37.71s5.02-27.48 15.05-37.71c10.23-10.23 22.87-15.24 37.91-15.24 19.46 0 36.71 10.03 44.93 25.88L446 311.25c-4.01-8.22-12.64-13.44-22.87-13.44-15.44 0-26.88 11.43-26.88 27.48 0 7.82 2.61 14.44 7.62 19.66 5.01 5.01 11.43 7.62 19.26 7.62 10.43 0 19.06-5.02 23.07-13.24l22.47 12.84c-8.82 15.85-25.88 26.08-45.33 26.08-15.04 0-27.68-5.02-37.91-15.25M509.99 335.91c3.41 12.64 12.84 18.86 28.28 18.86 9.83 0 17.45-3.41 22.47-10.03l20.86 12.03c-9.83 14.24-24.47 21.46-43.73 21.46-16.65 0-29.89-5.02-39.92-15.04-10.03-10.03-15.05-22.67-15.05-37.91s5.02-27.68 14.85-37.71c9.83-10.23 22.67-15.25 38.11-15.25 14.64 0 26.88 5.01 36.31 15.25 9.63 10.23 14.44 22.67 14.44 37.71 0 3.41-.4 6.82-1 10.63h-75.62zm50.75-20.06c-3.01-13.64-13.04-20.26-24.87-20.26-13.84 0-23.27 7.42-26.28 20.26h51.15zM158.12 418.38v25.16h-37.91v108.24H92.53V443.54H54.81v-25.16h103.31zM201.24 554.59c-14.84 0-27.48-5.02-37.71-15.25s-15.25-22.87-15.25-37.71 5.02-27.28 15.25-37.51c10.23-10.23 22.87-15.45 37.71-15.45s27.48 5.21 37.71 15.45c10.23 10.23 15.45 22.67 15.45 37.51s-5.21 27.48-15.45 37.71c-10.23 10.23-22.87 15.25-37.71 15.25m0-25.28c7.82 0 14.24-2.61 19.46-7.82 5.21-5.22 7.82-11.84 7.82-19.86s-2.61-14.64-7.82-19.86c-5.22-5.21-11.63-7.82-19.46-7.82s-14.24 2.61-19.46 7.82c-5.02 5.22-7.62 11.83-7.62 19.86s2.61 14.64 7.62 19.86c5.21 5.21 11.63 7.82 19.46 7.82M97.93 736.35 58.61 595.93h29.08l26.88 104.11 29.29-104.11h23.67l29.49 104.11 26.88-104.11h29.08l-39.31 140.42h-31.5l-26.48-92.68-26.27 92.68H97.93zM303.55 739.16c-14.84 0-27.48-5.02-37.71-15.25s-15.25-22.87-15.25-37.71 5.02-27.28 15.25-37.51c10.23-10.23 22.87-15.45 37.71-15.45s27.48 5.21 37.71 15.45c10.23 10.23 15.45 22.67 15.45 37.51s-5.21 27.48-15.45 37.71c-10.23 10.23-22.87 15.25-37.71 15.25m0-25.28c7.82 0 14.24-2.61 19.46-7.82 5.21-5.22 7.82-11.83 7.82-19.86s-2.61-14.64-7.82-19.86c-5.22-5.21-11.63-7.82-19.46-7.82s-14.24 2.61-19.46 7.82c-5.02 5.22-7.62 11.83-7.62 19.86s2.61 14.64 7.62 19.86c5.21 5.21 11.63 7.82 19.46 7.82M400.84 653.3c4.81-12.84 16.85-19.26 30.49-19.26v28.89c-7.83-1-15.05.6-21.27 4.82-6.22 4.21-9.23 11.03-9.23 20.66v47.94h-25.88v-100.3h25.88v17.25zM542.87 736.35h-30.09l-36.51-45.54v45.54H450.4V595.93h25.87v84.25l34.5-44.13h30.89l-40.31 49.55 41.52 50.75zM552.31 718.27c0-12.57 10.01-22.68 22.68-22.68s22.68 10.01 22.68 22.58-10.01 22.58-22.68 22.58-22.68-9.71-22.68-22.48m41.27-.1c0-11.14-7.77-18.9-18.59-18.9s-18.6 7.87-18.6 19 8.17 18.8 18.6 18.8 18.59-7.76 18.59-18.9m-26.36-11.44h7.87c5.21 0 8.58 2.15 8.58 6.74v.1c0 3.37-1.94 5.21-4.6 6.03l5.93 9.5h-5.11l-5.42-8.68h-2.35v8.68h-4.9v-22.37zm7.77 10.32c2.55 0 3.88-1.12 3.88-3.27v-.1c0-2.35-1.43-3.17-3.88-3.17h-2.86v6.54h2.86z"/></g><g fill="#fff"><path d="M87.46 926.4c0-32.44 24.05-57.6 57.6-57.6 20.26 0 38.14 10.29 47.63 26.11l-18.83 10.92c-5.38-9.81-16.14-15.83-28.8-15.83-21.68 0-35.92 15.03-35.92 36.4s14.24 36.24 35.92 36.24c12.66 0 23.58-6.01 28.8-15.67l18.83 10.92c-9.34 15.83-27.22 26.11-47.63 26.11-33.55 0-57.6-25.32-57.6-57.6zM240.8 965.48c7.91 0 14.24-3.32 17.72-7.91l16.46 9.5c-7.44 10.76-19.31 16.93-34.5 16.93-26.59 0-43.36-18.2-43.36-41.78s16.93-41.78 41.78-41.78c23.42 0 40.04 18.52 40.04 41.78 0 3.01-.32 5.7-.79 8.39h-59.66c2.85 10.45 11.55 14.88 22.31 14.88zm17.72-30.7c-2.53-11.39-11.08-15.98-19.62-15.98-10.92 0-18.36 5.86-20.73 15.98h40.35zM333.7 901.07v22.79c-10.6-1.27-24.05 3.48-24.05 20.1v37.82h-20.41v-79.13h20.41v13.61c4.11-10.76 14.08-15.19 24.05-15.19zM377.53 922.28v32.92c0 8.55 6.17 8.7 17.88 8.07v18.52c-28.64 3.17-38.3-5.22-38.3-26.59v-32.92h-13.77v-19.62h13.77v-15.98l20.41-6.17v22.16h17.88v19.62h-17.88zM408.23 880.66c0-6.8 5.7-12.66 12.5-12.66s12.66 5.86 12.66 12.66-5.7 12.5-12.66 12.5-12.5-5.7-12.5-12.5zm2.37 22h20.41v79.13H410.6v-79.13zM475.8 901.87v.79h16.78v19.62H475.8v59.5h-20.41v-59.5H444v-19.62h11.39v-.79c0-21.84 12.03-34.66 37.19-33.07v19.62c-10.6-.79-16.78 2.69-16.78 13.45zM503.02 880.66c0-6.8 5.7-12.66 12.5-12.66s12.66 5.86 12.66 12.66-5.7 12.5-12.66 12.5-12.5-5.7-12.5-12.5zm2.37 22h20.41v79.13h-20.41v-79.13zM582.14 965.48c7.91 0 14.24-3.32 17.72-7.91l16.46 9.5c-7.44 10.76-19.31 16.93-34.5 16.93-26.59 0-43.36-18.2-43.36-41.78s16.93-41.78 41.78-41.78c23.42 0 40.04 18.52 40.04 41.78 0 3.01-.32 5.7-.79 8.39h-59.66c2.85 10.45 11.55 14.88 22.31 14.88zm17.72-30.7c-2.53-11.39-11.08-15.98-19.62-15.98-10.92 0-18.36 5.86-20.73 15.98h40.35zM712.54 871.01v110.78h-20.41v-9.34c-5.7 7.28-14.08 11.55-25.64 11.55-21.21 0-38.61-18.2-38.61-41.78s17.41-41.78 38.61-41.78c11.55 0 19.94 4.27 25.64 11.55V871h20.41zm-20.41 71.21c0-13.29-9.34-22.31-21.84-22.31s-22 9.02-22 22.31 9.34 22.31 22 22.31 21.84-9.02 21.84-22.31z"/></g><g><text id="dateRange" x="50%" y="1113" text-anchor="middle" class="st1" style="font-size:70px;font-family:Arial,Helvetica,sans-serif;font-weight:700"><![CDATA[FEB 2025-FEB 2026]]></text></g><g><text id="countryName" x="50%" y="1235" text-anchor="middle" class="st1" style="font-size:70px;font-family:Arial,Helvetica,sans-serif;font-weight:700"><![CDATA[INDIA]]></text></g></svg>