<svg xmlns="http://www.w3.org/2000/svg" width="51.343" height="73.989" viewBox="0 0 51.343 73.989">
  <g id="Group_1152" data-name="Group 1152" transform="translate(-78.714 -1470.554)">
    <ellipse id="Ellipse_107" data-name="Ellipse 107" cx="24.172" cy="5.439" rx="24.172" ry="5.439" transform="translate(80.214 1532.166)" fill="none" stroke="#2258c2" stroke-miterlimit="10" stroke-width="3"/>
    <path id="Path_1536" data-name="Path 1536" d="M101.777,1472.054h4.56a50.527,50.527,0,0,1,5.107,1.285c13.711,4.95,19.374,20.133,12.32,32.934q-8.712,15.805-17.457,31.59a29.5,29.5,0,0,1-1.794,2.578H103.6a12.6,12.6,0,0,1-1.192-1.525c-1.689-2.993-3.338-6.01-5-9.017-4.405-7.96-8.845-15.9-13.212-23.884a22.66,22.66,0,0,1,10.522-31.857A51.6,51.6,0,0,1,101.777,1472.054Zm13.672,22.779A11.393,11.393,0,1,0,104.11,1506.3,11.445,11.445,0,0,0,115.449,1494.833Z" transform="translate(0.409)" fill="none" stroke="#2258c2" stroke-miterlimit="10" stroke-width="3"/>
  </g>
</svg>
