<svg width="49" height="59" viewBox="0 0 49 59" fill="none" xmlns="http://www.w3.org/2000/svg">
<path d="M29.664 48.8084C48.096 48.8084 48.096 36.9695 48.096 24.4768C48.096 10.8947 48.096 0 24.048 0C0 0 0 10.8947 0 24.4768C0 36.9695 0 48.8084 18.432 48.8084C21.528 54.2558 27.936 57.96 34.416 58.1053C31.896 56.7979 29.952 54.7642 29.088 52.3674C28.656 51.2779 28.368 48.8084 29.664 48.8084ZM25.776 40.9642C25.128 41.5453 24.336 41.8358 23.472 41.8358C22.608 41.8358 21.816 41.5453 21.096 40.9642C20.448 40.3832 20.088 39.5842 20.088 38.4947C20.088 37.5505 20.448 36.7516 21.096 36.0979C21.744 35.4442 22.536 35.1537 23.472 35.1537C24.408 35.1537 25.2 35.4442 25.848 36.0979C26.496 36.7516 26.784 37.5505 26.784 38.4947C26.784 39.5116 26.424 40.3105 25.776 40.9642ZM28.44 26.22C27.936 26.6558 27.504 27.0916 27.216 27.4547C26.928 27.8179 26.712 28.1084 26.568 28.3989C26.424 28.6895 26.28 28.98 26.208 29.2705C26.136 29.5611 25.992 30.0695 25.848 30.7958C25.56 32.3211 24.696 33.12 23.184 33.12C22.392 33.12 21.744 32.8295 21.24 32.3937C20.736 31.8853 20.448 31.1589 20.448 30.1421C20.448 28.9074 20.664 27.8179 21.024 26.8737C21.384 25.9295 21.888 25.1305 22.536 24.4768C23.184 23.7505 24.048 22.9516 25.128 22.0074C26.064 21.2084 26.784 20.5547 27.144 20.1189C27.576 19.6832 27.936 19.2474 28.224 18.6663C28.512 18.1579 28.656 17.5768 28.656 16.9958C28.656 15.8337 28.224 14.8168 27.36 13.9453C26.496 13.1463 25.344 12.7105 23.976 12.7105C22.32 12.7105 21.168 13.1463 20.376 13.9453C19.584 14.7442 18.936 15.9789 18.432 17.5768C17.928 19.2474 16.992 20.1189 15.552 20.1189C14.76 20.1189 14.04 19.8284 13.464 19.2474C12.888 18.6663 12.6 18.0126 12.6 17.3589C12.6 15.9789 13.032 14.5263 13.968 13.0737C14.904 11.6211 16.2 10.3863 17.928 9.44211C19.656 8.4979 21.672 7.98947 23.976 7.98947C26.136 7.98947 28.008 8.42526 29.664 9.15158C31.32 9.95053 32.544 11.04 33.48 12.42C34.344 13.8 34.848 15.2526 34.848 16.9232C34.848 18.1579 34.56 19.32 34.056 20.2642C33.552 21.2084 32.904 22.0074 32.256 22.7337C31.536 23.3874 30.24 24.5495 28.44 26.22Z" fill="#494949" style="fill:#494949;fill:color(display-p3 0.2875 0.2875 0.2875);fill-opacity:1;"/>
</svg>
