<svg width="15" height="15" viewBox="0 0 15 15" fill="none" xmlns="http://www.w3.org/2000/svg">
<circle cx="7.5" cy="7.5" r="7.5" fill="#52B43F" style="fill:#52B43F;fill:color(display-p3 0.3216 0.7059 0.2471);fill-opacity:1;"/>
<path d="M6.7323 10.649C6.53655 10.649 6.35115 10.5577 6.23235 10.4002L4.6245 8.27572C4.57479 8.21011 4.5385 8.13535 4.5177 8.05571C4.4969 7.97606 4.49201 7.8931 4.50329 7.81156C4.51457 7.73003 4.54182 7.65151 4.58346 7.58051C4.62511 7.50951 4.68034 7.44741 4.746 7.39777C4.81164 7.34792 4.88647 7.31152 4.9662 7.29064C5.04593 7.26976 5.129 7.26483 5.21064 7.27611C5.29229 7.2874 5.3709 7.31469 5.44198 7.35642C5.51306 7.39814 5.5752 7.45348 5.62485 7.51927L6.6828 8.91607L9.34275 4.64467C9.43097 4.50364 9.57152 4.40336 9.73357 4.36582C9.89563 4.32828 10.066 4.35655 10.2072 4.44442C10.5011 4.62712 10.5915 5.01412 10.4079 5.30842L7.2651 10.3529C7.21145 10.4394 7.1375 10.5115 7.04967 10.563C6.96184 10.6144 6.86279 10.6436 6.7611 10.6481C6.7512 10.649 6.7422 10.649 6.7323 10.649Z" fill="white" style="fill:white;fill-opacity:1;"/>
</svg>
