<svg width="16" height="16" viewBox="0 0 16 16" fill="none" xmlns="http://www.w3.org/2000/svg">
<path d="M11.984 9.05603C11.792 8.96003 10.832 8.50403 10.664 8.43203C10.496 8.36003 10.352 8.33603 10.232 8.52803C10.112 8.72003 9.72803 9.15203 9.63203 9.27203C9.51203 9.39203 9.41603 9.41603 9.22403 9.32003C9.03203 9.22403 8.40803 9.03203 7.66403 8.38403C7.08803 7.88003 6.70403 7.25603 6.58403 7.06403C6.46403 6.87203 6.58403 6.77603 6.68003 6.68003C6.77603 6.58403 6.87203 6.46403 6.96803 6.34403C7.06403 6.22403 7.08803 6.15203 7.16003 6.03203C7.23203 5.91203 7.18403 5.79203 7.13603 5.69603C7.08803 5.60003 6.70403 4.66403 6.53603 4.28003C6.36803 3.92003 6.22403 3.96803 6.10403 3.94403H5.74403C5.62403 3.94403 5.40803 3.99203 5.24003 4.18403C5.07203 4.37603 4.56803 4.83203 4.56803 5.76803C4.56803 6.70403 5.26403 7.59203 5.36003 7.73603C5.45603 7.85603 6.72803 9.77603 8.64803 10.592C9.10403 10.784 9.46403 10.904 9.75203 11C10.208 11.144 10.64 11.12 10.976 11.072C11.336 11.024 12.128 10.616 12.272 10.184C12.44 9.75203 12.44 9.36803 12.392 9.29603C12.296 9.20003 12.176 9.15203 11.984 9.05603ZM8.31203 14C7.16003 14 6.05603 13.688 5.07203 13.112L4.83203 12.968L2.43203 13.592L3.08003 11.264L2.93603 11.024C2.31203 10.016 1.97603 8.86403 1.97603 7.66403C1.97603 4.18403 4.83203 1.35203 8.33603 1.35203C9.99203 1.35203 11.6 2.00003 12.8 3.20003C14 4.40003 14.648 5.98403 14.648 7.66403C14.648 11.144 11.792 14 8.31203 14ZM13.712 2.28803C12.272 0.848031 10.352 0.0560303 8.31203 0.0560303C4.11203 0.0560303 0.680032 3.46403 0.680032 7.66403C0.680032 9.00803 1.04003 10.304 1.68803 11.456L0.608032 15.392L4.64003 14.336C5.74403 14.936 7.01603 15.272 8.28803 15.272C12.488 15.272 15.92 11.864 15.92 7.66403C15.944 5.64803 15.152 3.72803 13.712 2.28803Z" fill="white" style="fill:white;fill-opacity:1;"/>
</svg>
